<svg width="86" height="86" viewBox="0 0 86 86" fill="none" xmlns="http://www.w3.org/2000/svg">
<rect x="4.99999" width="71" height="71" rx="16" fill="white"/>
<g filter="url(#filter0_f_0_993)">
<circle cx="43.0356" cy="43.107" r="22.8214" fill="#C4C4C4"/>
</g>
<g clip-path="url(#clip0_0_993)">
<path d="M40.4999 61.4911C26.1249 61.4911 14.5087 49.9074 14.5087 35.5724C14.5087 28.6222 17.2676 22.1063 22.0592 17.1832C26.9961 12.2601 33.5302 9.50897 40.4999 9.50897C54.8749 9.50897 66.491 21.0927 66.491 35.4276C66.491 49.7626 54.8749 61.3463 40.4999 61.4911Z" fill="url(#paint0_linear_0_993)"/>
<mask id="mask0_0_993" style="mask-type:alpha" maskUnits="userSpaceOnUse" x="14" y="9" width="53" height="53">
<path d="M40.5 61.4911C26.125 61.4911 14.5088 49.9074 14.5088 35.5724C14.5088 28.6222 17.2677 22.1063 22.0593 17.1832C26.9962 12.2601 33.5303 9.50897 40.5 9.50897C54.8749 9.50897 66.4911 21.0927 66.4911 35.4276C66.4911 49.7626 54.8749 61.3463 40.5 61.4911Z" fill="url(#paint1_linear_0_993)"/>
</mask>
<g mask="url(#mask0_0_993)">
<path d="M69.8835 30.2991L11.5374 30.3818L11.5519 40.7023L69.8979 40.6195L69.8835 30.2991Z" fill="#121212"/>
<path d="M69.8835 51.0896L11.5374 51.1724L11.5522 61.7448L69.8983 61.6621L69.8835 51.0896Z" fill="#121212"/>
<path d="M69.882 8.57273L11.536 8.65643L11.5516 19.9101L69.8976 19.8264L69.882 8.57273Z" fill="#121212"/>
</g>
</g>
<defs>
<filter id="filter0_f_0_993" x="0.214203" y="0.285583" width="85.6429" height="85.6429" filterUnits="userSpaceOnUse" color-interpolation-filters="sRGB">
<feFlood flood-opacity="0" result="BackgroundImageFix"/>
<feBlend mode="normal" in="SourceGraphic" in2="BackgroundImageFix" result="shape"/>
<feGaussianBlur stdDeviation="10" result="effect1_foregroundBlur_0_993"/>
</filter>
<linearGradient id="paint0_linear_0_993" x1="14.5087" y1="35.5056" x2="66.5022" y2="35.5056" gradientUnits="userSpaceOnUse">
<stop stop-color="#FF9900"/>
<stop offset="0.765625" stop-color="#FFCD00"/>
</linearGradient>
<linearGradient id="paint1_linear_0_993" x1="14.5088" y1="35.5056" x2="66.5023" y2="35.5056" gradientUnits="userSpaceOnUse">
<stop stop-color="#FF9900"/>
<stop offset="0.765625" stop-color="#FFCD00"/>
</linearGradient>
<clipPath id="clip0_0_993">
<rect width="55.7857" height="55.7857" fill="white" transform="translate(12.6071 7.60718)"/>
</clipPath>
</defs>
</svg>
