<svg width="20" height="25" viewBox="0 0 20 25" fill="none" xmlns="http://www.w3.org/2000/svg">
<path d="M16.745 13.1174C16.7721 11.2182 17.7581 9.46593 19.3564 8.47667C18.3535 7.00565 16.7241 6.10233 14.9621 6.04061C13.1131 5.84573 11.3182 7.16729 10.3757 7.16729C9.43316 7.16729 7.9744 6.06497 6.40757 6.09542C4.35173 6.16242 2.48108 7.31818 1.47898 9.1405C-0.652142 12.8799 0.938695 18.3793 2.97977 21.4C4.00031 22.886 5.19493 24.5364 6.75576 24.4451C8.31658 24.3537 8.85086 23.4585 10.6938 23.4585C12.5368 23.4585 13.0531 24.4451 14.6499 24.4085C16.2467 24.372 17.3213 22.9225 18.3058 21.4304C19.0261 20.3911 19.583 19.2447 19.9567 18.0321C18.0131 17.1936 16.7496 15.2601 16.745 13.1174Z" fill="white"/>
<path d="M13.737 4.07959C14.6217 2.9882 15.0523 1.59008 14.9376 0.181885C13.5754 0.315368 12.3138 0.968346 11.4078 2.00893C10.5127 3.04213 10.0592 4.39393 10.1471 5.76656C11.5353 5.79172 12.8582 5.17003 13.737 4.07959Z" fill="white"/>
</svg>
