<svg width="42" height="42" viewBox="0 0 42 42" fill="none" xmlns="http://www.w3.org/2000/svg">
<path d="M35 15.75H19.25C17.317 15.75 15.75 17.317 15.75 19.25V35C15.75 36.933 17.317 38.5 19.25 38.5H35C36.933 38.5 38.5 36.933 38.5 35V19.25C38.5 17.317 36.933 15.75 35 15.75Z" stroke="white" stroke-width="1.5" stroke-linecap="round" stroke-linejoin="round"/>
<path d="M8.75 26.25H7C6.07174 26.25 5.1815 25.8813 4.52513 25.2249C3.86875 24.5685 3.5 23.6783 3.5 22.75V7C3.5 6.07174 3.86875 5.1815 4.52513 4.52513C5.1815 3.86875 6.07174 3.5 7 3.5H22.75C23.6783 3.5 24.5685 3.86875 25.2249 4.52513C25.8813 5.1815 26.25 6.07174 26.25 7V8.75" stroke="white" stroke-width="1.5" stroke-linecap="round" stroke-linejoin="round"/>
</svg>
