<svg width="24" height="24" viewBox="0 0 24 24" fill="none" xmlns="http://www.w3.org/2000/svg">
<g clip-path="url(#clip0_0_1002)">
<path d="M5.23835 0.383886C4.29941 -0.135084 3.19697 -0.123085 2.26402 0.391386L13.1984 10.4783L16.8717 6.80502L5.23835 0.383886Z" fill="white"/>
<path d="M1.17059 1.42328C0.903602 1.85975 0.75061 2.35923 0.75061 2.8887V21.1067C0.75061 21.6196 0.890102 22.1086 1.14209 22.5361L12.138 11.5402L1.17059 1.42328Z" fill="white"/>
<path d="M21.742 9.49272L18.2382 7.55933L14.3009 11.4951L19.1261 15.9454L21.7435 14.5009C22.6854 13.979 23.2494 13.043 23.2494 11.9961C23.2479 10.9491 22.6854 10.0132 21.742 9.49272Z" fill="white"/>
<path d="M13.2404 12.5573L2.21448 23.5831C2.69295 23.8561 3.21792 24.0001 3.74589 24.0001C4.25586 24.0001 4.76883 23.8711 5.23831 23.6116L17.7431 16.7105L13.2404 12.5573Z" fill="white"/>
</g>
<defs>
<clipPath id="clip0_0_1002">
<rect width="24" height="24" fill="white"/>
</clipPath>
</defs>
</svg>
