<svg width="48" height="48" viewBox="0 0 48 48" fill="none" xmlns="http://www.w3.org/2000/svg">
<path d="M8 20C8 10.0589 15.5562 2 24.8772 2C33 2 40 7 40 16" stroke="url(#paint0_linear_0_685)" stroke-width="1.5" stroke-linecap="round" stroke-linejoin="round"/>
<path d="M12.25 22C12.25 21.3096 11.6904 20.75 11 20.75H8C5.10051 20.75 2.75 23.1005 2.75 26V32C2.75 34.8995 5.10051 37.25 8 37.25H11C11.6904 37.25 12.25 36.6904 12.25 36V22Z" stroke="url(#paint1_linear_0_685)" stroke-width="1.5"/>
<path d="M35.75 22C35.75 21.3096 36.3096 20.75 37 20.75H40C42.8995 20.75 45.25 23.1005 45.25 26V32C45.25 34.8995 42.8995 37.25 40 37.25H37C36.3096 37.25 35.75 36.6904 35.75 36V22Z" stroke="url(#paint2_linear_0_685)" stroke-width="1.5"/>
<path d="M35.75 33V40C35.75 41.1046 34.8546 42 33.75 42H27.5" stroke="url(#paint3_linear_0_685)" stroke-width="1.5" stroke-linecap="round" stroke-linejoin="round"/>
<circle cx="24" cy="42" r="3.25" stroke="url(#paint4_linear_0_685)" stroke-width="1.5"/>
<defs>
<linearGradient id="paint0_linear_0_685" x1="41.5133" y1="25.2044" x2="37.6727" y2="9.3701" gradientUnits="userSpaceOnUse">
<stop offset="0.075419" stop-color="#FBB033"/>
<stop offset="0.6141" stop-color="#FDC73D"/>
<stop offset="0.959" stop-color="#FFE248"/>
</linearGradient>
<linearGradient id="paint1_linear_0_685" x1="1.47979" y1="43.2044" x2="9.37764" y2="32.0113" gradientUnits="userSpaceOnUse">
<stop offset="0.075419" stop-color="#FBB033"/>
<stop offset="0.6141" stop-color="#FDC73D"/>
<stop offset="0.959" stop-color="#FFE248"/>
</linearGradient>
<linearGradient id="paint2_linear_0_685" x1="46.5202" y1="43.2044" x2="38.6224" y2="32.0113" gradientUnits="userSpaceOnUse">
<stop offset="0.075419" stop-color="#FBB033"/>
<stop offset="0.6141" stop-color="#FDC73D"/>
<stop offset="0.959" stop-color="#FFE248"/>
</linearGradient>
<linearGradient id="paint3_linear_0_685" x1="36.1402" y1="44.6022" x2="32.9113" y2="37.7381" gradientUnits="userSpaceOnUse">
<stop offset="0.075419" stop-color="#FBB033"/>
<stop offset="0.6141" stop-color="#FDC73D"/>
<stop offset="0.959" stop-color="#FFE248"/>
</linearGradient>
<linearGradient id="paint4_linear_0_685" x1="28.3783" y1="48.3131" x2="25.669" y2="42.0298" gradientUnits="userSpaceOnUse">
<stop offset="0.075419" stop-color="#FBB033"/>
<stop offset="0.6141" stop-color="#FDC73D"/>
<stop offset="0.959" stop-color="#FFE248"/>
</linearGradient>
</defs>
</svg>
