<svg width="42" height="42" viewBox="0 0 42 42" fill="none" xmlns="http://www.w3.org/2000/svg">
<path d="M7 17.5C7 8.80151 13.6116 1.75 21.7675 1.75C28.875 1.75 35 6.125 35 14" stroke="white" stroke-width="1.5" stroke-linecap="round" stroke-linejoin="round"/>
<mask id="path-2-inside-1_0_1113" fill="white">
<path d="M11.375 18.5C11.375 17.9477 10.9273 17.5 10.375 17.5H7.75C4.43629 17.5 1.75 20.1863 1.75 23.5V27.25C1.75 30.5637 4.43629 33.25 7.75 33.25H10.375C10.9273 33.25 11.375 32.8023 11.375 32.25V18.5Z"/>
</mask>
<path d="M11.375 18.5C11.375 17.9477 10.9273 17.5 10.375 17.5H7.75C4.43629 17.5 1.75 20.1863 1.75 23.5V27.25C1.75 30.5637 4.43629 33.25 7.75 33.25H10.375C10.9273 33.25 11.375 32.8023 11.375 32.25V18.5Z" stroke="white" stroke-width="3" mask="url(#path-2-inside-1_0_1113)"/>
<mask id="path-3-inside-2_0_1113" fill="white">
<path d="M29.75 18.5C29.75 17.9477 30.1977 17.5 30.75 17.5H33.375C36.6887 17.5 39.375 20.1863 39.375 23.5V27.25C39.375 30.5637 36.6887 33.25 33.375 33.25H30.75C30.1977 33.25 29.75 32.8023 29.75 32.25V18.5Z"/>
</mask>
<path d="M29.75 18.5C29.75 17.9477 30.1977 17.5 30.75 17.5H33.375C36.6887 17.5 39.375 20.1863 39.375 23.5V27.25C39.375 30.5637 36.6887 33.25 33.375 33.25H30.75C30.1977 33.25 29.75 32.8023 29.75 32.25V18.5Z" stroke="white" stroke-width="3" mask="url(#path-3-inside-2_0_1113)"/>
</svg>
