<svg width="32" height="32" viewBox="0 0 32 32" fill="none" xmlns="http://www.w3.org/2000/svg">
<path d="M25.3151 12.1547C25.2714 11.1628 25.111 10.481 24.8812 9.89012C24.6442 9.26294 24.2795 8.70143 23.8018 8.23464C23.335 7.76059 22.7698 7.39223 22.1499 7.15891C21.5556 6.92915 20.8773 6.76876 19.8854 6.72503C18.8862 6.67759 18.569 6.66663 16.0346 6.66663C13.5003 6.66663 13.1831 6.67759 12.1875 6.72132C11.1957 6.76505 10.5138 6.92559 9.9231 7.15521C9.29578 7.39223 8.73427 7.75689 8.26748 8.23464C7.79343 8.70143 7.42521 9.26664 7.19175 9.88655C6.96199 10.481 6.80159 11.1591 6.75786 12.151C6.71043 13.1502 6.69946 13.4674 6.69946 16.0018C6.69946 18.5361 6.71043 18.8534 6.75416 19.8489C6.79789 20.8407 6.95842 21.5226 7.18819 22.1135C7.42521 22.7406 7.79343 23.3021 8.26748 23.7689C8.73427 24.243 9.29948 24.6113 9.91939 24.8447C10.5138 25.0744 11.192 25.2348 12.184 25.2785C13.1794 25.3224 13.4967 25.3332 16.0311 25.3332C18.5654 25.3332 18.8826 25.3224 19.8782 25.2785C20.87 25.2348 21.5519 25.0744 22.1426 24.8447C23.3971 24.3596 24.3889 23.3678 24.8739 22.1135C25.1036 21.519 25.2641 20.8407 25.3078 19.8489C25.3516 18.8534 25.3625 18.5361 25.3625 16.0018C25.3625 13.4674 25.3588 13.1502 25.3151 12.1547ZM23.6341 19.776C23.594 20.6876 23.4408 21.1799 23.3132 21.5081C22.9995 22.3213 22.3541 22.9667 21.5409 23.2803C21.2127 23.408 20.7169 23.5611 19.8088 23.6011C18.8242 23.645 18.529 23.6558 16.0383 23.6558C13.5477 23.6558 13.2487 23.645 12.2677 23.6011C11.3561 23.5611 10.8638 23.408 10.5356 23.2803C10.1309 23.1308 9.76256 22.8938 9.46358 22.5838C9.15362 22.2811 8.91659 21.9165 8.76703 21.5118C8.6394 21.1836 8.48627 20.6876 8.44625 19.7797C8.40237 18.7951 8.39155 18.4997 8.39155 16.009C8.39155 13.5184 8.40237 13.2194 8.44625 12.2386C8.48627 11.3269 8.6394 10.8347 8.76703 10.5065C8.91659 10.1016 9.15362 9.73343 9.46728 9.4343C9.76983 9.12434 10.1345 8.88732 10.5393 8.73789C10.8675 8.61026 11.3635 8.45714 12.2714 8.41697C13.256 8.37324 13.5514 8.36227 16.0419 8.36227C18.5362 8.36227 18.8315 8.37324 19.8125 8.41697C20.7241 8.45714 21.2164 8.61026 21.5446 8.73789C21.9493 8.88732 22.3177 9.12434 22.6167 9.4343C22.9266 9.73699 23.1636 10.1016 23.3132 10.5065C23.4408 10.8347 23.594 11.3305 23.6341 12.2386C23.6779 13.2231 23.6888 13.5184 23.6888 16.009C23.6888 18.4997 23.6779 18.7914 23.6341 19.776Z" fill="#909090"/>
<path d="M16.0346 11.2064C13.3873 11.2064 11.2394 13.3542 11.2394 16.0016C11.2394 18.6491 13.3873 20.7968 16.0346 20.7968C18.6821 20.7968 20.8298 18.6491 20.8298 16.0016C20.8298 13.3542 18.6821 11.2064 16.0346 11.2064ZM16.0346 19.1122C14.3172 19.1122 12.9241 17.7192 12.9241 16.0016C12.9241 14.284 14.3172 12.8911 16.0346 12.8911C17.7522 12.8911 19.1452 14.284 19.1452 16.0016C19.1452 17.7192 17.7522 19.1122 16.0346 19.1122Z" fill="#909090"/>
<path d="M22.139 11.0173C22.139 11.6355 21.6378 12.1368 21.0194 12.1368C20.4012 12.1368 19.8999 11.6355 19.8999 11.0173C19.8999 10.3989 20.4012 9.89783 21.0194 9.89783C21.6378 9.89783 22.139 10.3989 22.139 11.0173Z" fill="#909090"/>
<circle cx="16" cy="16" r="15.75" stroke="#909090" stroke-width="0.5"/>
</svg>
