<svg width="48" height="48" viewBox="0 0 48 48" fill="none" xmlns="http://www.w3.org/2000/svg">
<path d="M12 26L6 37.7264L13.1937 36.9906L16.6755 44L22.5 32" stroke="url(#paint0_linear_0_688)" stroke-width="1.5"/>
<path d="M35.5 27L41 37.7264L33.8063 36.9906L30.3245 44L24 32" stroke="url(#paint1_linear_0_688)" stroke-width="1.5"/>
<mask id="path-3-inside-1_0_688" fill="white">
<path fill-rule="evenodd" clip-rule="evenodd" d="M24 31.3696C32.2482 31.3696 38.9347 24.683 38.9347 16.4348C38.9347 8.18653 32.2482 1.5 24 1.5C15.7517 1.5 9.06519 8.18653 9.06519 16.4348C9.06519 24.683 15.7517 31.3696 24 31.3696ZM40.4347 16.4348C40.4347 25.5115 33.0766 32.8696 24 32.8696C14.9233 32.8696 7.56519 25.5115 7.56519 16.4348C7.56519 7.3581 14.9233 0 24 0C33.0766 0 40.4347 7.3581 40.4347 16.4348ZM24 7.21353L24.6609 8.44544L26.9517 12.7155L32.1 13.4079L33.7114 13.6246L32.5005 14.7097L28.8146 18.013L29.6813 22.6626L29.9533 24.1215L28.6173 23.4751L24 21.241L19.3827 23.4751L18.0467 24.1215L18.3187 22.6626L19.1854 18.013L15.4995 14.7097L14.2886 13.6246L15.9 13.4079L21.0483 12.7155L23.3391 8.44544L24 7.21353ZM24 10.3865L22.1889 13.7623L22.0077 14.1L21.628 14.1511L17.7114 14.6778L20.5005 17.1773L20.8146 17.4587L20.7373 17.8733L20.0653 21.4785L23.6733 19.7327L24 19.5746L24.3267 19.7327L27.9347 21.4785L27.2627 17.8733L27.1854 17.4587L27.4995 17.1773L30.2886 14.6778L26.372 14.1511L25.9923 14.1L25.8111 13.7623L24 10.3865Z"/>
</mask>
<path d="M24.6609 8.44544L25.9827 7.73632L24.6609 8.44544ZM24 7.21353L25.3218 6.50441L24 4.0406L22.6782 6.50441L24 7.21353ZM26.9517 12.7155L25.6299 13.4247L25.9923 14.1L26.7518 14.2022L26.9517 12.7155ZM32.1 13.4079L32.2999 11.9213L32.1 13.4079ZM33.7114 13.6246L34.7125 14.7417L37.1342 12.5714L33.9113 12.138L33.7114 13.6246ZM32.5005 14.7097L31.4995 13.5927L32.5005 14.7097ZM28.8146 18.013L27.8135 16.8959L27.1854 17.4587L27.34 18.2878L28.8146 18.013ZM29.6813 22.6626L31.1559 22.3877L29.6813 22.6626ZM29.9533 24.1215L29.2999 25.4718L31.9718 26.7646L31.4279 23.8467L29.9533 24.1215ZM28.6173 23.4751L29.2707 22.1249L28.6173 23.4751ZM24 21.241L24.6533 19.8907L24 19.5746L23.3467 19.8907L24 21.241ZM19.3827 23.4751L20.036 24.8254L19.3827 23.4751ZM18.0467 24.1215L16.5721 23.8467L16.0282 26.7646L18.7001 25.4718L18.0467 24.1215ZM18.3187 22.6626L19.7933 22.9374L18.3187 22.6626ZM19.1854 18.013L20.66 18.2878L20.8146 17.4587L20.1865 16.8959L19.1854 18.013ZM15.4995 14.7097L16.5005 13.5927L15.4995 14.7097ZM14.2886 13.6246L14.0887 12.138L10.8658 12.5714L13.2875 14.7417L14.2886 13.6246ZM15.9 13.4079L15.7001 11.9213L15.9 13.4079ZM21.0483 12.7155L21.2482 14.2022L22.0077 14.1L22.3701 13.4247L21.0483 12.7155ZM23.3391 8.44544L22.0173 7.73632L23.3391 8.44544ZM22.1889 13.7623L23.5107 14.4715V14.4715L22.1889 13.7623ZM24 10.3865L25.3218 9.67735L24 7.21353L22.6782 9.67735L24 10.3865ZM22.0077 14.1L22.2077 15.5866L22.9672 15.4845L23.3295 14.8091L22.0077 14.1ZM21.628 14.1511L21.8279 15.6377H21.8279L21.628 14.1511ZM17.7114 14.6778L17.5115 13.1912L14.2886 13.6246L16.7103 15.7949L17.7114 14.6778ZM20.5005 17.1773L19.4995 18.2944H19.4995L20.5005 17.1773ZM20.8146 17.4587L22.2892 17.7336L22.4437 16.9045L21.8156 16.3417L20.8146 17.4587ZM20.7373 17.8733L19.2627 17.5984H19.2627L20.7373 17.8733ZM20.0653 21.4785L18.5907 21.2036L18.0467 24.1215L20.7186 22.8287L20.0653 21.4785ZM23.6733 19.7327L24.3267 21.0829H24.3267L23.6733 19.7327ZM24 19.5746L24.6533 18.2244L24 17.9082L23.3467 18.2244L24 19.5746ZM24.3267 19.7327L23.6733 21.0829L24.3267 19.7327ZM27.9347 21.4785L27.2814 22.8287L29.9533 24.1215L29.4093 21.2036L27.9347 21.4785ZM27.2627 17.8733L28.7373 17.5984H28.7373L27.2627 17.8733ZM27.1854 17.4587L26.1843 16.3417L25.5563 16.9045L25.7108 17.7336L27.1854 17.4587ZM27.4995 17.1773L28.5005 18.2944L27.4995 17.1773ZM30.2886 14.6778L31.2897 15.7949L33.7114 13.6246L30.4885 13.1912L30.2886 14.6778ZM26.372 14.1511L26.1721 15.6377L26.372 14.1511ZM25.9923 14.1L24.6705 14.8091L25.0328 15.4845L25.7923 15.5866L25.9923 14.1ZM25.8111 13.7623L24.4893 14.4715V14.4715L25.8111 13.7623ZM37.4347 16.4348C37.4347 23.8546 31.4198 29.8696 24 29.8696V32.8696C33.0766 32.8696 40.4347 25.5115 40.4347 16.4348H37.4347ZM24 3C31.4198 3 37.4347 9.01496 37.4347 16.4348H40.4347C40.4347 7.3581 33.0766 0 24 0V3ZM10.5652 16.4348C10.5652 9.01496 16.5801 3 24 3V0C14.9233 0 7.56519 7.3581 7.56519 16.4348H10.5652ZM24 29.8696C16.5801 29.8696 10.5652 23.8546 10.5652 16.4348H7.56519C7.56519 25.5115 14.9233 32.8696 24 32.8696V29.8696ZM24 34.3696C33.9051 34.3696 41.9347 26.3399 41.9347 16.4348H38.9347C38.9347 24.683 32.2482 31.3696 24 31.3696V34.3696ZM6.06519 16.4348C6.06519 26.3399 14.0949 34.3696 24 34.3696V31.3696C15.7517 31.3696 9.06519 24.683 9.06519 16.4348H6.06519ZM24 -1.5C14.0949 -1.5 6.06519 6.52968 6.06519 16.4348H9.06519C9.06519 8.18653 15.7517 1.5 24 1.5V-1.5ZM41.9347 16.4348C41.9347 6.52968 33.9051 -1.5 24 -1.5V1.5C32.2482 1.5 38.9347 8.18653 38.9347 16.4348H41.9347ZM25.9827 7.73632L25.3218 6.50441L22.6782 7.92265L23.3391 9.15456L25.9827 7.73632ZM28.2735 12.0064L25.9827 7.73632L23.3391 9.15456L25.6299 13.4247L28.2735 12.0064ZM32.2999 11.9213L27.1517 11.2289L26.7518 14.2022L31.9 14.8945L32.2999 11.9213ZM33.9113 12.138L32.2999 11.9213L31.9 14.8945L33.5115 15.1112L33.9113 12.138ZM33.5016 15.8268L34.7125 14.7417L32.7103 12.5075L31.4995 13.5927L33.5016 15.8268ZM29.8157 19.13L33.5016 15.8268L31.4995 13.5927L27.8135 16.8959L29.8157 19.13ZM31.1559 22.3877L30.2892 17.7381L27.34 18.2878L28.2067 22.9374L31.1559 22.3877ZM31.4279 23.8467L31.1559 22.3877L28.2067 22.9374L28.4787 24.3964L31.4279 23.8467ZM27.964 24.8254L29.2999 25.4718L30.6066 22.7713L29.2707 22.1249L27.964 24.8254ZM23.3467 22.5912L27.964 24.8254L29.2707 22.1249L24.6533 19.8907L23.3467 22.5912ZM20.036 24.8254L24.6533 22.5912L23.3467 19.8907L18.7293 22.1249L20.036 24.8254ZM18.7001 25.4718L20.036 24.8254L18.7293 22.1249L17.3934 22.7713L18.7001 25.4718ZM16.8441 22.3877L16.5721 23.8467L19.5213 24.3964L19.7933 22.9374L16.8441 22.3877ZM17.7108 17.7381L16.8441 22.3877L19.7933 22.9374L20.66 18.2878L17.7108 17.7381ZM14.4984 15.8268L18.1843 19.13L20.1865 16.8959L16.5005 13.5927L14.4984 15.8268ZM13.2875 14.7417L14.4984 15.8268L16.5005 13.5927L15.2897 12.5075L13.2875 14.7417ZM15.7001 11.9213L14.0887 12.138L14.4885 15.1112L16.1 14.8945L15.7001 11.9213ZM20.8483 11.2289L15.7001 11.9213L16.1 14.8945L21.2482 14.2022L20.8483 11.2289ZM22.0173 7.73632L19.7265 12.0064L22.3701 13.4247L24.6609 9.15456L22.0173 7.73632ZM22.6782 6.50441L22.0173 7.73632L24.6609 9.15456L25.3218 7.92265L22.6782 6.50441ZM23.5107 14.4715L25.3218 11.0956L22.6782 9.67735L20.8671 13.0532L23.5107 14.4715ZM23.3295 14.8091L23.5107 14.4715L20.8671 13.0532L20.6859 13.3909L23.3295 14.8091ZM21.8279 15.6377L22.2077 15.5866L21.8078 12.6134L21.428 12.6645L21.8279 15.6377ZM17.9113 16.1644L21.8279 15.6377L21.428 12.6645L17.5115 13.1912L17.9113 16.1644ZM21.5016 16.0603L18.7125 13.5607L16.7103 15.7949L19.4995 18.2944L21.5016 16.0603ZM21.8156 16.3417L21.5016 16.0603L19.4995 18.2944L19.8135 18.5758L21.8156 16.3417ZM22.2119 18.1482L22.2892 17.7336L19.34 17.1839L19.2627 17.5984L22.2119 18.1482ZM21.5399 21.7533L22.2119 18.1482L19.2627 17.5984L18.5907 21.2036L21.5399 21.7533ZM23.02 18.3824L19.4119 20.1282L20.7186 22.8287L24.3267 21.0829L23.02 18.3824ZM23.3467 18.2244L23.02 18.3824L24.3267 21.0829L24.6533 20.9248L23.3467 18.2244ZM24.98 18.3824L24.6533 18.2244L23.3467 20.9248L23.6733 21.0829L24.98 18.3824ZM28.5881 20.1282L24.98 18.3824L23.6733 21.0829L27.2814 22.8287L28.5881 20.1282ZM25.7881 18.1482L26.4601 21.7533L29.4093 21.2036L28.7373 17.5984L25.7881 18.1482ZM25.7108 17.7336L25.7881 18.1482L28.7373 17.5984L28.66 17.1839L25.7108 17.7336ZM26.4984 16.0603L26.1843 16.3417L28.1865 18.5758L28.5005 18.2944L26.4984 16.0603ZM29.2875 13.5607L26.4984 16.0603L28.5005 18.2944L31.2897 15.7949L29.2875 13.5607ZM26.1721 15.6377L30.0887 16.1644L30.4885 13.1912L26.572 12.6645L26.1721 15.6377ZM25.7923 15.5866L26.1721 15.6377L26.572 12.6645L26.1922 12.6134L25.7923 15.5866ZM24.4893 14.4715L24.6705 14.8091L27.3141 13.3909L27.1329 13.0532L24.4893 14.4715ZM22.6782 11.0956L24.4893 14.4715L27.1329 13.0532L25.3218 9.67735L22.6782 11.0956Z" fill="url(#paint2_linear_0_688)" mask="url(#path-3-inside-1_0_688)"/>
<defs>
<linearGradient id="paint0_linear_0_688" x1="5.21969" y1="49.2044" x2="11.6774" y2="35.4763" gradientUnits="userSpaceOnUse">
<stop offset="0.075419" stop-color="#FBB033"/>
<stop offset="0.6141" stop-color="#FDC73D"/>
<stop offset="0.959" stop-color="#FFE248"/>
</linearGradient>
<linearGradient id="paint1_linear_0_688" x1="41.804" y1="48.9153" x2="36.0467" y2="35.5634" gradientUnits="userSpaceOnUse">
<stop offset="0.075419" stop-color="#FBB033"/>
<stop offset="0.6141" stop-color="#FDC73D"/>
<stop offset="0.959" stop-color="#FFE248"/>
</linearGradient>
<linearGradient id="paint2_linear_0_688" x1="41.9892" y1="42.3733" x2="30.8575" y2="16.5574" gradientUnits="userSpaceOnUse">
<stop offset="0.075419" stop-color="#FBB033"/>
<stop offset="0.6141" stop-color="#FDC73D"/>
<stop offset="0.959" stop-color="#FFE248"/>
</linearGradient>
</defs>
</svg>
