<svg width="48" height="48" viewBox="0 0 48 48" fill="none" xmlns="http://www.w3.org/2000/svg">
<path d="M42 24V41.4483C42 43.9621 39.851 46 37.2 46H10.8C8.14903 46 6 43.9621 6 41.4483V24" stroke="url(#paint0_linear_0_679)" stroke-width="1.5" stroke-linecap="round" stroke-linejoin="round"/>
<line x1="22.75" y1="14" x2="22.75" y2="46" stroke="url(#paint1_linear_0_679)" stroke-width="1.5"/>
<path d="M13.4245 3.01533C19.6225 4.67608 22.7999 14.0685 22.7999 14.0685L13.9455 11.696C6.86209 9.79796 7.22649 1.35457 13.4245 3.01533Z" stroke="url(#paint2_linear_0_679)" stroke-width="1.5"/>
<path d="M33.6773 3.01533C27.4793 4.67608 24.3019 14.0685 24.3019 14.0685L33.1563 11.696C40.2397 9.79796 39.8753 1.35457 33.6773 3.01533Z" stroke="url(#paint3_linear_0_679)" stroke-width="1.5"/>
<rect x="2.75" y="14.75" width="42.5" height="8.5" rx="1.25" stroke="url(#paint4_linear_0_679)" stroke-width="1.5"/>
<defs>
<linearGradient id="paint0_linear_0_679" x1="43.7025" y1="52.361" x2="38.6534" y2="33.1999" gradientUnits="userSpaceOnUse">
<stop offset="0.075419" stop-color="#FBB033"/>
<stop offset="0.6141" stop-color="#FDC73D"/>
<stop offset="0.959" stop-color="#FFE248"/>
</linearGradient>
<linearGradient id="paint1_linear_0_679" x1="20.7109" y1="47.5133" x2="21.6421" y2="47.5008" gradientUnits="userSpaceOnUse">
<stop offset="0.075419" stop-color="#FBB033"/>
<stop offset="0.6141" stop-color="#FDC73D"/>
<stop offset="0.959" stop-color="#FFE248"/>
</linearGradient>
<linearGradient id="paint2_linear_0_679" x1="22.906" y1="16.5664" x2="23.2124" y2="9.07511" gradientUnits="userSpaceOnUse">
<stop offset="0.075419" stop-color="#FBB033"/>
<stop offset="0.6141" stop-color="#FDC73D"/>
<stop offset="0.959" stop-color="#FFE248"/>
</linearGradient>
<linearGradient id="paint3_linear_0_679" x1="24.1958" y1="16.5664" x2="23.8894" y2="9.07511" gradientUnits="userSpaceOnUse">
<stop offset="0.075419" stop-color="#FBB033"/>
<stop offset="0.6141" stop-color="#FDC73D"/>
<stop offset="0.959" stop-color="#FFE248"/>
</linearGradient>
<linearGradient id="paint4_linear_0_679" x1="48.0808" y1="26.8913" x2="47.1767" y2="17.6656" gradientUnits="userSpaceOnUse">
<stop offset="0.075419" stop-color="#FBB033"/>
<stop offset="0.6141" stop-color="#FDC73D"/>
<stop offset="0.959" stop-color="#FFE248"/>
</linearGradient>
</defs>
</svg>
