<svg width="255" height="43" viewBox="0 0 269 43" fill="none" xmlns="http://www.w3.org/2000/svg">
<path d="M125.242 12.8737L131.094 8.58246H111.443V34.5051H131.094V30.2138H117.032V23.558H128.998V19.2668H117.032V12.8737H125.242Z" fill="white"/>
<path d="M95.7221 30.2138H89.8704V23.0326H95.7221C99.3029 23.0326 100.875 24.2586 100.875 26.6232C100.962 29.0753 99.2156 30.2138 95.7221 30.2138ZM96.6828 18.7413H89.8704V12.9613H100.7L106.552 8.67004H84.3682V34.5927H96.0714C102.622 34.5927 106.377 31.6151 106.377 26.448C106.29 21.4562 102.884 18.7413 96.6828 18.7413Z" fill="white"/>
<path d="M146.815 22.8574H141.836V12.8737H146.815C150.395 12.8737 152.404 14.6252 152.404 17.8656C152.317 21.1059 150.395 22.8574 146.815 22.8574ZM146.902 8.58246H136.247V34.5051H141.836V27.1487H146.902C153.714 27.1487 157.906 23.558 157.906 17.8656C157.906 12.1731 153.714 8.58246 146.902 8.58246Z" fill="white"/>
<path d="M74.761 28.9002C73.3636 29.6884 71.7042 30.1263 69.9574 30.1263C64.8918 30.1263 61.2237 26.5356 61.2237 21.5438C61.2237 16.5519 64.8918 12.9613 69.9574 12.9613C71.8789 12.9613 73.5383 13.4868 75.023 14.5377L79.0405 11.5601L78.7785 11.3849C76.4204 9.28309 73.2763 8.23218 69.7828 8.23218C65.9399 8.23218 62.359 9.54582 59.9136 11.9104C57.3808 14.2749 55.9834 17.6904 55.9834 21.3686C55.9834 25.1344 57.3808 28.5499 59.9136 31.002C62.4464 33.4542 65.9399 34.8554 69.7828 34.8554C73.8003 34.8554 77.2938 33.4542 79.7393 30.9145C77.9052 29.5132 76.1584 28.2872 76.1584 28.2872L74.761 28.9002Z" fill="white"/>
<path d="M0 21.4562V21.6314C0 33.4542 9.60714 43.0876 21.4851 43.0876C33.363 43.0876 42.9701 33.4542 42.9701 21.6314C42.9701 20.3177 42.8828 19.0041 42.6208 17.778L37.9045 21.0183C37.9045 21.1935 37.9045 21.2811 37.9045 21.4562C37.9045 30.5642 30.4808 38.0081 21.3977 38.0081C12.3146 38.0081 4.97825 30.6517 4.97825 21.4562C4.97825 12.2607 12.3146 4.99185 21.4851 4.99185C24.8912 4.99185 28.1227 6.04277 30.7429 7.88187L34.9351 4.72912C31.2669 1.75153 26.5506 0 21.4851 0C9.60714 0 0 9.54583 0 21.4562Z" fill="white"/>
<path d="M38.4286 8.31976C39.4766 9.63341 40.35 11.0346 40.9614 12.611L21.4851 27.0611L13.2753 21.8941V15.7638L21.3977 20.9308L38.4286 8.31976Z" fill="white"/>
<path d="M170.308 10.5092C171.007 9.98371 172.143 9.45825 173.627 8.93279C175.112 8.40733 176.859 8.23218 178.955 8.23218C180.44 8.23218 181.75 8.31975 182.885 8.58248C184.108 8.84521 185.069 9.19552 185.942 9.80855C186.815 10.334 187.427 11.0346 187.863 11.8228C188.3 12.611 188.562 13.5743 188.562 14.7128C188.562 17.6904 186.99 19.7047 183.933 20.8432C187.863 21.4562 189.872 23.4705 189.872 26.8859C189.872 28.0244 189.61 29.0754 189.173 30.0387C188.737 31.002 188.038 31.8778 187.165 32.5784C186.291 33.279 185.156 33.8045 183.846 34.2424C182.536 34.6802 180.964 34.8554 179.304 34.8554C178.081 34.8554 177.033 34.7678 175.985 34.5927C174.937 34.4175 174.064 34.1548 173.191 33.8921C172.405 33.5417 171.619 33.279 171.007 32.8411C170.396 32.4908 169.959 32.053 169.61 31.7026V26.0102C170.046 26.7108 170.483 27.3238 171.094 27.8493C171.706 28.3747 172.405 28.9002 173.278 29.3381C174.064 29.776 175.025 30.1263 176.073 30.3014C177.121 30.5642 178.169 30.6517 179.392 30.6517C180.178 30.6517 180.964 30.5642 181.575 30.389C182.274 30.2138 182.885 29.9511 183.409 29.6008C183.933 29.2505 184.282 28.8126 184.632 28.3747C184.894 27.8493 185.069 27.3238 185.069 26.6232C185.069 25.4847 184.632 24.609 183.758 24.0835C182.885 23.558 181.4 23.2953 179.392 23.2953H175.461V19.442H179.304C180.178 19.442 180.876 19.3544 181.4 19.1792C181.924 19.0041 182.448 18.7413 182.798 18.391C183.147 18.0407 183.409 17.6904 183.584 17.2525C183.758 16.8147 183.846 16.3768 183.846 15.8513C183.846 15.2383 183.758 14.7128 183.496 14.2749C183.234 13.8371 182.885 13.4868 182.448 13.224C182.012 12.9613 181.488 12.7861 180.876 12.611C180.265 12.4358 179.654 12.4358 178.955 12.3483C177.994 12.3483 177.033 12.4358 176.16 12.6986C175.287 12.9613 174.501 13.3116 173.715 13.7495C173.016 14.1874 172.317 14.7128 171.793 15.2383C171.182 15.7637 170.745 16.3768 170.396 16.9022V10.5092H170.308Z" fill="white"/>
<path d="M194.501 34.5051V8.58246H205.768C211.619 8.58246 214.501 10.7719 214.501 15.0631C214.501 16.5519 214.152 17.778 213.541 18.7413C212.929 19.7047 211.969 20.4928 210.658 21.0183C212.231 21.281 213.453 21.8941 214.152 22.945C214.851 23.9083 215.287 25.3095 215.287 26.9735C215.287 28.2871 215.025 29.4256 214.589 30.389C214.152 31.3523 213.453 32.1405 212.58 32.7535C211.707 33.3666 210.658 33.8045 209.436 34.0672C208.213 34.3299 206.816 34.5051 205.156 34.5051H194.501ZM205.069 19.5295C206.554 19.5295 207.689 19.1792 208.562 18.5662C209.436 17.9531 209.872 17.0774 209.872 15.9389C209.872 14.888 209.523 14.0998 208.824 13.5743C208.126 13.0489 206.903 12.7861 205.244 12.7861H199.13V19.5295H205.069ZM205.418 30.3014C207.165 30.3014 208.475 30.0387 209.348 29.4256C210.222 28.8126 210.571 27.9368 210.571 26.6232C210.571 25.3971 210.134 24.4338 209.261 23.9959C208.388 23.4704 207.078 23.2077 205.506 23.2077H199.13V30.3014H205.418Z" fill="white"/>
<path d="M225.506 30.4766C226.03 30.4766 226.467 30.389 226.816 30.1263C227.253 29.8635 227.515 29.5132 227.864 28.9002L216.51 8.58246H221.838L230.135 23.6456L236.947 8.58246H241.751L232.318 29.1629C231.794 30.3014 231.27 31.2647 230.746 31.9654C230.222 32.666 229.698 33.279 229.174 33.7169C228.65 34.1548 228.039 34.4175 227.515 34.5926C226.903 34.7678 226.292 34.8554 225.681 34.8554C225.069 34.8554 224.545 34.7678 224.021 34.6802C223.497 34.5926 223.06 34.4175 222.711 34.2423V29.4256C223.06 29.7759 223.497 30.0387 223.934 30.2138C224.458 30.389 224.894 30.4766 225.506 30.4766Z" fill="white"/>
<path d="M249.611 34.5051H244.982V8.58246H249.611V19.4419H253.454L261.838 8.58246H267.428L257.559 20.9307L269 34.5051H263.148L253.716 23.2953H249.611V34.5051Z" fill="white"/>
</svg>
