<svg width="32" height="32" viewBox="0 0 32 32" fill="none" xmlns="http://www.w3.org/2000/svg">
<path opacity="0.2" d="M0.25 16C0.25 7.30151 7.30151 0.25 16 0.25C24.6985 0.25 31.75 7.30151 31.75 16C31.75 24.6985 24.6985 31.75 16 31.75C7.30151 31.75 0.25 24.6985 0.25 16Z" stroke="#E8E8E8" stroke-width="0.5"/>
<path opacity="0.2" d="M15.5207 13.0052L15.5543 13.5588L14.9947 13.491C12.9578 13.2312 11.1783 12.3499 9.66747 10.8697L8.92882 10.1353L8.73856 10.6777C8.33566 11.8866 8.59307 13.1634 9.43244 14.0221C9.88011 14.4966 9.77939 14.5644 9.00716 14.282C8.73856 14.1916 8.50354 14.1238 8.48115 14.1577C8.40281 14.2368 8.67141 15.2649 8.88405 15.6717C9.17504 16.2366 9.76819 16.7903 10.4173 17.1179L10.9657 17.3778L10.3166 17.3891C9.68985 17.3891 9.66747 17.4004 9.73462 17.6377C9.95845 18.3721 10.8426 19.1517 11.8275 19.4907L12.5213 19.7279L11.917 20.0895C11.0217 20.6092 9.96964 20.903 8.91763 20.9256C8.414 20.9369 7.99991 20.9821 7.99991 21.016C7.99991 21.129 9.36529 21.7617 10.1599 22.0103C12.5437 22.7447 15.3752 22.4283 17.5016 21.1742C19.0125 20.2816 20.5234 18.5077 21.2285 16.7903C21.609 15.8751 21.9895 14.2029 21.9895 13.4007C21.9895 12.8809 22.0231 12.8131 22.6498 12.1917C23.0191 11.8301 23.3661 11.4347 23.4332 11.3217C23.5451 11.107 23.5339 11.107 22.9632 11.2991C22.0119 11.6381 21.8776 11.5929 22.3476 11.0844C22.6946 10.7229 23.1087 10.0675 23.1087 9.87548C23.1087 9.84159 22.9408 9.89808 22.7505 9.99977C22.5491 10.1127 22.1014 10.2822 21.7657 10.3839L21.1613 10.576L20.6129 10.2031C20.3107 9.99977 19.8855 9.77379 19.6616 9.706C19.0908 9.54782 18.2179 9.57042 17.7031 9.7512C16.3041 10.2596 15.42 11.5703 15.5207 13.0052Z" fill="#CACACA"/>
</svg>
