<svg width="32" height="32" viewBox="0 0 32 32" fill="none" xmlns="http://www.w3.org/2000/svg">
<path opacity="0.2" d="M0.25 16C0.25 7.30151 7.30151 0.25 16 0.25C24.6985 0.25 31.75 7.30151 31.75 16C31.75 24.6985 24.6985 31.75 16 31.75C7.30151 31.75 0.25 24.6985 0.25 16Z" stroke="#E8E8E8" stroke-width="0.5"/>
<path opacity="0.2" d="M16.837 21.2504C16.837 21.2504 17.145 21.2168 17.3028 21.0505C17.4472 20.8981 17.4422 20.6105 17.4422 20.6105C17.4422 20.6105 17.423 19.2675 18.0582 19.0693C18.6842 18.8742 19.4881 20.368 20.3412 20.9423C20.9856 21.3766 21.4747 21.2816 21.4747 21.2816L23.7544 21.2504C23.7544 21.2504 24.9464 21.1783 24.3813 20.2582C24.3345 20.1828 24.0516 19.5773 22.6868 18.3335C21.2569 17.0315 21.4489 17.2421 23.1701 14.9896C24.2185 13.618 24.6375 12.7806 24.5065 12.4225C24.3821 12.08 23.6108 12.171 23.6108 12.171L21.0449 12.1866C21.0449 12.1866 20.8545 12.1612 20.7135 12.2439C20.5757 12.325 20.4864 12.5143 20.4864 12.5143C20.4864 12.5143 20.0807 13.5754 19.539 14.4783C18.3963 16.3825 17.9397 16.4833 17.7527 16.3653C17.3178 16.0892 17.4263 15.2576 17.4263 14.6668C17.4263 12.8207 17.7118 12.0514 16.8712 11.8523C16.5924 11.7859 16.3871 11.7425 15.6734 11.7351C14.7577 11.7261 13.983 11.7384 13.544 11.9489C13.2518 12.0891 13.0264 12.4021 13.1642 12.4201C13.3336 12.4422 13.7176 12.5217 13.9213 12.7937C14.1842 13.1452 14.175 13.9335 14.175 13.9335C14.175 13.9335 14.3261 16.1064 13.8219 16.376C13.4763 16.5612 13.0022 16.1834 11.983 14.4554C11.4613 13.5705 11.0673 12.5921 11.0673 12.5921C11.0673 12.5921 10.9914 12.4094 10.8553 12.3111C10.6908 12.1923 10.4613 12.1554 10.4613 12.1554L8.02303 12.171C8.02303 12.171 7.65658 12.1808 7.52219 12.3373C7.40282 12.4758 7.51301 12.7634 7.51301 12.7634C7.51301 12.7634 9.42204 17.1478 11.584 19.3577C13.5665 21.3832 15.8169 21.2504 15.8169 21.2504H16.837Z" fill="#CACACA"/>
</svg>
