<svg width="32" height="32" viewBox="0 0 32 32" fill="none" xmlns="http://www.w3.org/2000/svg">
<circle opacity="0.2" cx="16" cy="16" r="15.75" stroke="#E8E8E8" stroke-width="0.5"/>
<path opacity="0.2" fill-rule="evenodd" clip-rule="evenodd" d="M15.998 8H16.002C20.413 8 24 11.589 24 16C24 20.411 20.413 24 16.002 24C14.375 24 12.866 23.516 11.601 22.678L8.526 23.661L9.523 20.689C8.564 19.372 8 17.75 8 16C8 11.588 11.587 8 15.998 8ZM19.087 20.4262C19.698 20.2942 20.464 19.8422 20.657 19.2972C20.85 18.7512 20.85 18.2862 20.794 18.1872C20.7488 18.1086 20.6418 18.0571 20.4822 17.9803C20.4407 17.9603 20.3955 17.9386 20.347 17.9142C20.112 17.7972 18.969 17.2322 18.753 17.1572C18.541 17.0772 18.339 17.1052 18.179 17.3312C18.1486 17.3738 18.1182 17.4165 18.088 17.459C17.895 17.7304 17.7088 17.9923 17.554 18.1592C17.413 18.3092 17.183 18.3282 16.99 18.2482C16.9689 18.2394 16.9448 18.2297 16.9178 18.2188C16.6122 18.0953 15.9344 17.8216 15.114 17.0912C14.422 16.4752 13.952 15.7082 13.816 15.4782C13.6825 15.2475 13.7976 15.1122 13.9041 14.9871C13.9061 14.9848 13.908 14.9825 13.91 14.9802C13.9786 14.8953 14.0452 14.8246 14.1122 14.7535C14.1603 14.7024 14.2086 14.6511 14.258 14.5942C14.2653 14.5857 14.2725 14.5775 14.2794 14.5695C14.3842 14.449 14.4467 14.3772 14.517 14.2272C14.597 14.0722 14.54 13.9122 14.483 13.7942C14.4438 13.7115 14.2015 13.1238 13.9936 12.6192C13.9046 12.4032 13.8218 12.2025 13.764 12.0632C13.609 11.6922 13.491 11.6782 13.256 11.6682C13.2488 11.6678 13.2415 11.6675 13.2342 11.6671C13.1599 11.6633 13.0781 11.6592 12.988 11.6592C12.682 11.6592 12.363 11.7492 12.17 11.9462C12.1632 11.9531 12.1562 11.9602 12.1489 11.9676C11.902 12.2188 11.352 12.7781 11.352 13.8932C11.352 15.0412 12.1218 16.0695 12.302 16.3062C12.3429 16.3599 12.3942 16.432 12.4562 16.5192C12.9642 17.2334 14.1896 18.9561 16.285 19.8242C18.123 20.5862 18.669 20.5152 19.087 20.4262Z" fill="#CACACA"/>
</svg>
