<svg width="32" height="32" viewBox="0 0 32 32" fill="none" xmlns="http://www.w3.org/2000/svg">
<path opacity="0.2" d="M0.25 16C0.25 7.30151 7.30151 0.25 16 0.25C24.6985 0.25 31.75 7.30151 31.75 16C31.75 24.6985 24.6985 31.75 16 31.75C7.30151 31.75 0.25 24.6985 0.25 16Z" stroke="#E8E8E8" stroke-width="0.5"/>
<path opacity="0.2" fill-rule="evenodd" clip-rule="evenodd" d="M22.6678 10.4996C23.4022 10.7011 23.9805 11.2949 24.1767 12.0489C24.5334 13.4154 24.5334 16.2667 24.5334 16.2667C24.5334 16.2667 24.5334 19.1179 24.1767 20.4846C23.9805 21.2386 23.4022 21.8323 22.6678 22.0339C21.337 22.4001 16.0001 22.4001 16.0001 22.4001C16.0001 22.4001 10.6631 22.4001 9.33222 22.0339C8.59787 21.8323 8.01954 21.2386 7.82327 20.4846C7.46672 19.1179 7.46672 16.2667 7.46672 16.2667C7.46672 16.2667 7.46672 13.4154 7.82327 12.0489C8.01954 11.2949 8.59787 10.7011 9.33222 10.4996C10.6631 10.1334 16.0001 10.1334 16.0001 10.1334C16.0001 10.1334 21.337 10.1334 22.6678 10.4996ZM14.4001 13.8665V19.1998L18.6667 16.5332L14.4001 13.8665Z" fill="#CACACA"/>
</svg>
